<?xml version="1.0" encoding="UTF-8" standalone="no"?>
<svg width="245px" height="53px" viewBox="0 0 245 53" version="1.1" xmlns="http://www.w3.org/2000/svg" xmlns:xlink="http://www.w3.org/1999/xlink" xmlns:sketch="http://www.bohemiancoding.com/sketch/ns">
    <!-- Generator: Sketch 3.3.3 (12081) - http://www.bohemiancoding.com/sketch -->
    <title>android</title>
    <desc>Created with Sketch.</desc>
    <defs></defs>
    <g id="Page-1" stroke="none" stroke-width="1" fill="none" fill-rule="evenodd" sketch:type="MSPage">
        <g id="android" sketch:type="MSLayerGroup" transform="translate(1.190087, 0.684878)" stroke="#C5C5C5">
            <path d="M0.121257457,32.3238925 C0.121257457,29.6402694 0.579761484,27.1363604 1.49676954,24.8121105 C2.41377759,22.4879342 3.69758511,20.4632326 5.34821088,18.7380055 C6.99881787,17.012852 8.97344264,15.65907 11.272104,14.6766224 C13.5707277,13.6942669 16.0894386,13.2030615 18.8282555,13.2030247 C20.9067921,13.2030615 22.7958347,13.502573 24.4953834,14.101559 C26.1948944,14.7006187 27.8393978,15.6830294 29.4289122,17.0487544 L29.4289122,13.9218632 L38.7457238,13.9218632 L38.7457238,50.7259219 L29.4289122,50.7259219 L29.4289122,47.5990121 C27.8393978,48.9647925 26.1948944,49.9471847 24.4953834,50.5462077 C22.7958347,51.1452302 20.9067921,51.444742 18.8282555,51.444742 C16.0894386,51.444742 13.5707277,50.9535366 11.272104,49.971144 C8.97344264,48.9887518 6.99881787,47.6349514 5.34821088,45.9097611 C3.69758511,44.1845708 2.41377759,42.1598692 1.49676954,39.8356561 C0.579761484,37.511443 0.121257457,35.0075341 0.121257457,32.3238925 L0.121257457,32.3238925 L0.121257457,32.3238925 Z M20.0387257,42.8547298 C20.7723059,42.8547482 21.5425829,42.7768892 22.3495755,42.621116 C23.1565306,42.4654349 23.969608,42.2018074 24.7888267,41.8303992 C25.6080078,41.4590095 26.4088592,40.9618234 27.1913998,40.3388228 C27.9738841,39.7158588 28.719709,38.9491015 29.4289122,38.0385691 L29.4289122,26.6091975 C28.719709,25.6987019 27.9738841,24.9379436 27.1913998,24.3269042 C26.4088592,23.7159385 25.6080078,23.218734 24.7888267,22.8353462 C23.969608,22.4519951 23.1565306,22.1824237 22.3495755,22.0266506 C21.5425829,21.8709694 20.7723059,21.7930736 20.0387257,21.7930368 C18.5959424,21.7930736 17.2448635,22.0566275 15.9855268,22.5837536 C14.7261526,23.1109165 13.6318578,23.8477154 12.7026425,24.7941502 C11.7733896,25.7406401 11.0458943,26.8548094 10.5201566,28.1367132 C9.99438127,29.4186353 9.73151239,30.8143556 9.73151239,32.3238925 C9.73151239,33.8334478 9.99438127,35.2291681 10.5201566,36.5110719 C11.0458943,37.792994 11.7733896,38.9071817 12.7026425,39.8536164 C13.6318578,40.800088 14.7261526,41.5368869 15.9855268,42.064013 C17.2448635,42.5911759 18.5959424,42.8547482 20.0387257,42.8547298 L20.0387257,42.8547298 L20.0387257,42.8547298 Z" id="Shape" sketch:type="MSShapeGroup"></path>
            <path d="M62.0358653,22.2885482 C57.6210127,22.3201998 53.7861358,25.3346361 53.7861358,29.8079854 L53.7861358,50.7259219 L44.4693054,50.7259219 L44.4693054,30.059578 C44.5213271,21.4419077 52.1376512,13.3191415 61.9023557,13.2030247 L62.1625953,13.2030247 C71.9273003,13.3191415 79.5436618,21.4419077 79.5956458,30.059578 L79.5956458,50.7259219 L70.2788152,50.7259219 L70.2788152,29.8079854 C70.2788152,25.3346361 66.4439383,22.3201813 62.0290857,22.2885482" id="Shape" sketch:type="MSShapeGroup"></path>
            <path d="M84.006235,32.3238925 C84.006235,29.6402694 84.4647388,27.1363604 85.3817469,24.8121105 C86.2987549,22.4879342 87.5825627,20.4632326 89.2331882,18.7380055 C90.8837953,17.012852 92.8584203,15.65907 95.1570813,14.6766224 C97.4557053,13.6942669 99.9744161,13.2030615 102.713252,13.2030247 C104.791788,13.2030615 106.686935,13.502573 108.398709,14.101559 C110.110428,14.7006187 111.748827,15.6710497 113.31389,17.0128152 L113.31389,2.88782241 L122.630702,2.88782241 L122.630702,50.7259219 L113.31389,50.7259219 L113.31389,47.6349514 C111.748827,49.0007317 110.110428,49.9771432 108.398709,50.5641863 C106.686935,51.1512295 104.791788,51.444742 102.713252,51.444742 C99.9744161,51.444742 97.4557053,50.9535366 95.1570813,49.971144 C92.8584203,48.9887518 90.8837953,47.6349514 89.2331882,45.9097611 C87.5825627,44.1845708 86.2987549,42.1598692 85.3817469,39.8356561 C84.4647388,37.511443 84.006235,35.0075341 84.006235,32.3238925 L84.006235,32.3238925 L84.006235,32.3238925 Z M103.923703,42.8547298 C104.657284,42.8547482 105.427579,42.7768892 106.234572,42.621116 C107.041508,42.4654349 107.854585,42.2018074 108.673804,41.8303992 C109.492985,41.4590095 110.293837,40.9618234 111.076377,40.3388228 C111.858862,39.7158588 112.604705,38.9491015 113.31389,38.0385691 L113.31389,26.6091975 C112.604705,25.6987019 111.858862,24.9379436 111.076377,24.3269042 C110.293837,23.7159385 109.492985,23.218734 108.673804,22.8353462 C107.854585,22.4519951 107.041508,22.1824237 106.234572,22.0266506 C105.427579,21.8709694 104.657284,21.7930736 103.923703,21.7930368 C102.48092,21.7930736 101.12986,22.0566275 99.8705043,22.5837536 C98.6111299,23.1109165 97.5168354,23.8477154 96.58762,24.7941502 C95.6583673,25.7406401 94.9308719,26.8548094 94.405134,28.1367132 C93.8793586,29.4186353 93.6164901,30.8143556 93.6165086,32.3238925 C93.6164901,33.8334478 93.8793586,35.2291681 94.405134,36.5110719 C94.9308719,37.792994 95.6583673,38.9071817 96.58762,39.8536164 C97.5168354,40.800088 98.6111299,41.5368869 99.8705043,42.064013 C101.12986,42.5911759 102.48092,42.8547482 103.923703,42.8547298 L103.923703,42.8547298 L103.923703,42.8547298 Z" id="Shape" sketch:type="MSShapeGroup"></path>
            <path d="M166.261189,42.8547298 C167.65503,42.8547482 168.969394,42.5971566 170.204335,42.0819918 C171.43922,41.5668454 172.515166,40.8420263 173.432211,39.9075344 C174.349182,38.9730609 175.070574,37.8648724 175.596349,36.5829502 C176.122068,35.3010464 176.384956,33.8813666 176.384974,32.3238925 C176.384956,30.7903962 176.115964,29.3826962 175.578019,28.1007556 C175.039999,26.8188702 174.3064,25.7106816 173.377185,24.7761714 C172.447932,23.8417347 171.371967,23.1109165 170.149308,22.5837536 C168.926612,22.0566275 167.63056,21.7930736 166.261189,21.7930368 C164.86731,21.7930736 163.552928,22.0566275 162.318043,22.5837536 C161.083121,23.1109165 160.007156,23.8417347 159.090166,24.7761714 C158.173139,25.7106816 157.445644,26.8188702 156.90768,28.1007556 C156.369698,29.3826962 156.100707,30.7903962 156.100707,32.3238925 C156.100707,33.8813666 156.363575,35.3010464 156.889351,36.5829502 C157.415089,37.8648724 158.136461,38.9730609 159.053488,39.9075344 C159.970477,40.8420263 161.046443,41.5668454 162.281365,42.0819918 C163.51625,42.5971566 164.842858,42.8547482 166.261189,42.8547298 L166.261189,42.8547298 L166.261189,42.8547298 Z M166.261189,51.444742 C163.546824,51.444742 160.991416,50.965516 158.594984,50.0070832 C156.198515,49.0486504 154.10163,47.7128286 152.304292,45.9996182 C150.506954,44.2864077 149.088641,42.261706 148.049354,39.9255132 C147.010086,37.5893204 146.490452,35.0554529 146.490452,32.3238925 C146.490452,29.6642472 147.010086,27.1722996 148.049354,24.8480681 C149.088641,22.5238734 150.500831,20.4991717 152.285943,18.7739447 C154.071055,17.0487912 156.167959,15.6890101 158.576636,14.6946012 C160.985313,13.7002475 163.546824,13.2030615 166.261189,13.2030247 C168.975516,13.2030615 171.530924,13.7002475 173.927393,14.6946012 C176.323825,15.6890101 178.414607,17.0487912 180.199738,18.7739447 C181.984831,20.4991717 183.397021,22.5238734 184.436327,24.8480681 C185.475576,27.1722996 185.99521,29.6642472 185.995248,32.3238925 C185.99521,35.0554529 185.475576,37.5893204 184.436327,39.9255132 C183.397021,42.261706 181.978708,44.2864077 180.181408,45.9996182 C178.384032,47.7128286 176.293251,49.0486504 173.909064,50.0070832 C171.524802,50.965516 168.975516,51.444742 166.261189,51.444742 L166.261189,51.444742 L166.261189,51.444742 Z" id="Shape" sketch:type="MSShapeGroup"></path>
            <path d="M194.828221,11.0399398 C194.073363,11.0399766 193.359802,10.8954839 192.68754,10.6065536 C192.01524,10.3176786 191.425536,9.9247584 190.918391,9.42777482 C190.411228,8.9308648 190.01021,8.35304107 189.715358,7.69426686 C189.420488,7.0355846 189.273062,6.33639951 189.273062,5.59671154 C189.273062,4.85713398 189.420488,4.15217063 189.715358,3.48182151 C190.01021,2.81158279 190.411228,2.22798084 190.918391,1.73097883 C191.425536,1.23408724 192.01524,0.841167108 192.68754,0.552200038 C193.359802,0.263324983 194.073363,0.118869053 194.828221,0.118813847 C195.583042,0.118869053 196.302499,0.263269777 196.986574,0.552200038 C197.67063,0.841167108 198.26625,1.23408724 198.773414,1.73097883 C199.280559,2.22798084 199.681576,2.81158279 199.976447,3.48182151 C200.271299,4.15217063 200.418725,4.85713398 200.418744,5.59671154 C200.418725,6.33639951 200.271317,7.0355846 199.976447,7.69426686 C199.681576,8.35304107 199.280559,8.9308648 198.773414,9.42777482 C198.26625,9.9247584 197.67063,10.3176786 196.986574,10.6065536 C196.302499,10.8955207 195.583042,11.0399766 194.828221,11.0399398 L194.828221,11.0399398 L194.828221,11.0399398 Z" id="Shape" sketch:type="MSShapeGroup"></path>
            <path d="M190.169148,13.9218632 L199.485979,13.9218632 L199.485979,50.7259219 L190.169148,50.7259219 L190.169148,13.9218632 L190.169148,13.9218632 Z" id="Shape" sketch:type="MSShapeGroup"></path>
            <path d="M203.769932,32.3238925 C203.769932,29.6402694 204.228436,27.1363604 205.145444,24.8121105 C206.062452,22.4879342 207.34626,20.4632326 208.996885,18.7380055 C210.647492,17.012852 212.622117,15.65907 214.920778,14.6766224 C217.219402,13.6942669 219.738113,13.2030615 222.476949,13.2030247 C224.555485,13.2030615 226.450632,13.502573 228.162406,14.101559 C229.874125,14.7006187 231.512525,15.6710497 233.077587,17.0128152 L233.077587,2.88782241 L242.394398,2.88782241 L242.394398,50.7259219 L233.077587,50.7259219 L233.077587,47.6349514 C231.512525,49.0007317 229.874125,49.9771432 228.162406,50.5641863 C226.450632,51.1512295 224.555485,51.444742 222.476949,51.444742 C219.738113,51.444742 217.219402,50.9535366 214.920778,49.971144 C212.622117,48.9887518 210.647492,47.6349514 208.996885,45.9097611 C207.34626,44.1845708 206.062452,42.1598692 205.145444,39.8356561 C204.228436,37.511443 203.769932,35.0075341 203.769932,32.3238925 L203.769932,32.3238925 L203.769932,32.3238925 Z M223.6874,42.8547298 C224.420981,42.8547482 225.191276,42.7768892 225.998269,42.621116 C226.805205,42.4654349 227.618282,42.2018074 228.437501,41.8303992 C229.256682,41.4590095 230.057534,40.9618234 230.840075,40.3388228 C231.622558,39.7158588 232.368403,38.9491015 233.077587,38.0385691 L233.077587,26.6091975 C232.368403,25.6987019 231.622558,24.9379436 230.840075,24.3269042 C230.057534,23.7159385 229.256682,23.218734 228.437501,22.8353462 C227.618282,22.4519951 226.805205,22.1824237 225.998269,22.0266506 C225.191276,21.8709694 224.420981,21.7930736 223.6874,21.7930368 C222.244617,21.7930736 220.893557,22.0566275 219.634201,22.5837536 C218.374827,23.1109165 217.280532,23.8477154 216.351317,24.7941502 C215.422064,25.7406401 214.694569,26.8548094 214.168831,28.1367132 C213.643056,29.4186353 213.380187,30.8143556 213.380206,32.3238925 C213.380187,33.8334478 213.643056,35.2291681 214.168831,36.5110719 C214.694569,37.792994 215.422064,38.9071817 216.351317,39.8536164 C217.280532,40.800088 218.374827,41.5368869 219.634201,42.064013 C220.893557,42.5911759 222.244617,42.8547482 223.6874,42.8547298 L223.6874,42.8547298 L223.6874,42.8547298 Z" id="Shape" sketch:type="MSShapeGroup"></path>
            <path d="M145.602666,22.1782465 C139.358962,22.1782465 136.605609,25.3346361 136.605609,29.8079854 L136.605609,50.7259219 L127.288778,50.7259219 L127.288778,30.059578 C127.3408,21.4419077 132.421004,12.9698894 145.602666,12.9698894 L145.602666,22.1782465 Z" id="Shape" sketch:type="MSShapeGroup"></path>
        </g>
    </g>
</svg>