<?xml version="1.0" encoding="UTF-8" standalone="no"?>
<svg width="79px" height="73px" viewBox="0 0 79 73" version="1.1" xmlns="http://www.w3.org/2000/svg" xmlns:xlink="http://www.w3.org/1999/xlink" xmlns:sketch="http://www.bohemiancoding.com/sketch/ns">
    <!-- Generator: Sketch 3.3.3 (12081) - http://www.bohemiancoding.com/sketch -->
    <title>atom</title>
    <desc>Created with Sketch.</desc>
    <defs></defs>
    <g id="Page-1" stroke="none" stroke-width="1" fill="none" fill-rule="evenodd" sketch:type="MSPage">
        <path d="M26.4777682,27.9090586 C25.8235632,28.9170864 25.1914086,29.9294416 24.5813043,30.9432845 C23.9139774,29.1069537 23.3280879,27.2984809 22.829047,25.5342294 C24.6030841,25.2801264 26.4887257,25.0795757 28.4762317,24.9408265 C27.8013292,25.9080138 27.1344082,26.8975147 26.4777682,27.9090586 L26.4777682,27.9090586 L26.4777682,27.9090586 Z M75.5288,31.4628501 C73.563615,29.5770241 70.7541588,27.849015 67.178488,26.3266956 C60.0800393,23.3046407 50.5718821,21.3467354 40.4053262,20.8136464 C39.1793007,20.7494106 37.98236,20.7054598 36.8247852,20.6820645 C44.5867727,11.4203527 52.0830739,6.49245717 56.4487691,6.32666134 C57.37326,6.29136549 58.1493502,6.4742007 58.7574254,6.86921668 C60.8006661,8.19666517 61.3674812,12.3139732 60.2738929,17.883009 C60.0581243,18.9823192 60.7744222,20.0484973 61.874098,20.2643293 C62.9739089,20.47935 64.040171,19.7639667 64.2562102,18.6645214 C66.1361699,9.09082668 63.5063634,5.11618954 60.9692227,3.46756237 C59.6449851,2.60707393 58.0712949,2.20516104 56.2946874,2.27264238 C49.5793465,2.52769207 40.1700776,9.68571724 31.5845169,20.7208764 C28.1853838,20.8381235 24.9084068,21.1314442 21.8430048,21.5890731 C21.5065681,20.0272656 21.2465636,18.5134659 21.0704315,17.0624144 C20.3004285,10.7183574 21.244805,6.21509399 23.5964797,5.01611702 C23.9743114,4.82354503 24.3871802,4.71265386 24.8587597,4.67735802 C26.9600347,4.51927048 29.9249251,5.93083395 33.2017667,8.65131896 C34.0636236,9.36697272 35.343084,9.24864372 36.0592463,8.3866677 C36.7751381,7.52482694 36.6566345,6.24592718 35.7945071,5.53027342 C31.5857344,2.03611962 27.8044406,0.387627687 24.5550604,0.631723499 C23.5503499,0.707048355 22.6075967,0.966290278 21.7527743,1.40201144 C19.5683033,2.51565632 18.0755093,4.64814766 17.3157875,7.74025333 C16.6650998,10.3881181 16.5728401,13.6890238 17.041714,17.5510117 C17.2270451,19.0783348 17.4981424,20.667865 17.8475658,22.3044564 C15.4508434,22.809417 13.2295769,23.4245925 11.2385536,24.1436271 C2.52772539,27.2892851 0.516680969,31.4355331 0.363546146,34.3599497 C0.217175229,37.1534606 1.64760599,41.3109329 9.29298376,45.2523026 C10.2890365,45.7659181 11.5128976,45.3746886 12.0265486,44.3791023 C12.5401996,43.3833807 12.1491106,42.1599265 11.1530578,41.6465815 C6.75503111,39.3791275 4.2995981,36.8007725 4.4163431,34.5721304 C4.58084129,31.432017 9.84586543,28.1085274 18.8142632,26.235819 C19.645006,29.2351547 20.7120798,32.35025 21.9915401,35.5088904 C18.7681333,41.5577333 16.416188,47.5192157 15.1966559,52.8221126 C14.325059,56.6113454 14.0703303,59.9011619 14.4395043,62.6002798 C14.8706356,65.7526997 16.1319687,68.0285379 18.1880607,69.3646412 C19.2364661,70.0458107 20.649446,70.5786292 22.5054617,70.5786292 C25.1966844,70.5784942 28.8188912,69.4578172 33.6073305,66.0435862 C34.5196461,65.3931147 34.7318975,64.1263859 34.0810745,63.2142383 C33.430522,62.3022262 32.1632367,62.0901806 31.2507858,62.7406521 C26.5306619,66.1061987 22.4742125,67.3108559 20.3997226,65.9631222 C18.1873844,64.5255942 17.7208102,59.9528206 19.151782,53.7310145 C20.1006227,49.6054575 21.7937635,45.0325488 24.089839,40.3195387 C24.5883388,41.3863929 25.1086184,42.4539234 25.6512189,43.5194252 C30.2724545,52.5941097 35.9296499,60.4894259 41.5807577,65.7512121 C44.4266034,68.4008349 47.1485343,70.266511 49.6709298,71.2964466 C51.2011961,71.9210885 52.6382553,72.2334772 53.972368,72.2334772 C55.2071866,72.2333417 56.35421,71.9657156 57.4043739,71.4303274 C59.5113304,70.3561707 60.9765277,68.3301077 61.7593821,65.4085314 C62.4296851,62.906583 62.5802498,59.7855376 62.2071526,56.1319437 C61.473404,48.9482244 58.7579666,40.1867398 54.5610982,31.4613626 C54.0755851,30.4515768 52.8629521,30.0269447 51.8529658,30.5121612 C50.8429796,30.9976481 50.4179355,32.2097428 50.9035841,33.2193934 C54.901999,41.5321743 57.4826998,49.815745 58.1697771,56.543999 C58.7740648,62.4612601 57.7987093,66.6751247 55.5606682,67.8160867 C53.2104817,69.0141169 49.0186188,67.132348 44.3467893,62.782439 C39.0342826,57.8360163 33.6791632,50.3412609 29.267744,41.6789022 C28.2592456,39.698413 27.3301556,37.7138666 26.4848026,35.744196 C27.5340197,33.8687829 28.6685972,31.9870138 29.8821771,30.1172804 C31.1195661,28.2108989 32.3722414,26.4143267 33.6282986,24.7290514 C33.9614886,24.7244534 34.2964372,24.7210726 34.6342267,24.7199907 C36.3768793,24.7144462 38.2446642,24.7629949 40.1928043,24.8650959 C49.8968442,25.3739782 58.9158363,27.2186934 65.5884291,30.0592654 C71.4574699,32.5579681 74.878924,35.6237033 74.7409404,38.2602085 C74.623654,40.4987227 71.9028054,42.8125616 67.2761589,44.6083224 C66.2314058,45.0138866 65.7132907,46.1891978 66.1188543,47.2334681 C66.4308057,48.0366177 67.1981032,48.5283255 68.0111246,48.5283255 C68.2551664,48.5283255 68.5036725,48.483969 68.7448732,48.3902524 C76.7844512,45.2697477 78.6469602,41.2745552 78.7937374,38.4722541 C78.9219808,36.023182 77.8235225,33.6649866 75.5288,31.4628501 Z M35.3908086,36.9593073 C35.3908086,39.4093261 37.3758796,41.3954951 39.8245487,41.3954951 C42.2733531,41.3954951 44.2584241,39.4093261 44.2584241,36.9593073 C44.2584241,34.5092886 42.2733531,32.5231195 39.8245487,32.5231195 C37.3758796,32.5231195 35.3908086,34.5092886 35.3908086,36.9593073 Z" id="atom" opacity="0.307660914" fill="#C4C4C4" sketch:type="MSShapeGroup"></path>
    </g>
</svg>