<?xml version="1.0" encoding="UTF-8" standalone="no"?>
<svg width="123px" height="142px" viewBox="0 0 123 142" version="1.1" xmlns="http://www.w3.org/2000/svg" xmlns:xlink="http://www.w3.org/1999/xlink" xmlns:sketch="http://www.bohemiancoding.com/sketch/ns">
    <!-- Generator: Sketch 3.3.3 (12081) - http://www.bohemiancoding.com/sketch -->
    <title>discover</title>
    <desc>Created with Sketch.</desc>
    <defs></defs>
    <g id="Page-1" stroke="none" stroke-width="1" fill="none" fill-rule="evenodd" sketch:type="MSPage">
        <g id="discover" sketch:type="MSLayerGroup" transform="translate(-2.000573, 1.284812)" stroke="#C5C5C5">
            <ellipse id="Oval-28" sketch:type="MSShapeGroup" cx="63.3259746" cy="78.7913846" rx="60.6289145" ry="60.6087574"></ellipse>
            <path d="M72.0063407,90.1469386 L103.897761,48.2700875 L55.4466234,68.2087413 L55.4195305,68.1728489 L55.364051,68.2427216 L55.280597,68.2770647 L55.3079791,68.3133403 L22.7541699,109.312664 L71.8676964,90.2515377 L71.897059,90.2904371 L71.951432,90.2190396 L72.0359926,90.1862213 L72.0063407,90.1469386 L72.0063407,90.1469386 Z M62.9557677,84.8035121 C65.9937134,84.8035121 68.456455,82.3415893 68.456455,79.3046536 C68.456455,76.2677179 65.9937134,73.8057951 62.9557677,73.8057951 C59.917822,73.8057951 57.4550804,76.2677179 57.4550804,79.3046536 C57.4550804,82.3415893 59.917822,84.8035121 62.9557677,84.8035121 Z" id="Rectangle-38" sketch:type="MSShapeGroup"></path>
            <ellipse id="Oval-32" sketch:type="MSShapeGroup" cx="62.1446373" cy="9.09131361" rx="9.09433717" ry="9.09131361"></ellipse>
        </g>
    </g>
</svg>