<?xml version="1.0" encoding="UTF-8" standalone="no"?>
<svg width="162px" height="158px" viewBox="0 0 162 158" version="1.1" xmlns="http://www.w3.org/2000/svg" xmlns:xlink="http://www.w3.org/1999/xlink" xmlns:sketch="http://www.bohemiancoding.com/sketch/ns">
    <!-- Generator: Sketch 3.3.3 (12081) - http://www.bohemiancoding.com/sketch -->
    <title>github</title>
    <desc>Created with Sketch.</desc>
    <defs></defs>
    <g id="Page-1" stroke="none" stroke-width="1" fill="none" fill-rule="evenodd" sketch:type="MSPage">
        <path d="M81.0398151,0.848604635 C36.6784001,0.848604635 0.705838134,36.8025575 0.705838134,81.1558733 C0.705838134,116.637728 23.7239677,146.74032 55.6431145,157.35921 C59.6579508,158.102598 61.1319201,155.6171 61.1319201,153.495982 C61.1319201,151.580991 61.0574233,145.254872 61.0228356,138.544425 C38.6738456,143.402384 33.9579427,129.06921 33.9579427,129.06921 C30.3036166,119.786824 25.0383012,117.318613 25.0383012,117.318613 C17.7496037,112.334318 25.5877137,112.436716 25.5877137,112.436716 C33.654635,113.003234 37.9022733,120.712403 37.9022733,120.712403 C45.0672531,132.989622 56.6953794,129.44024 61.279583,127.388273 C62.000604,122.197851 64.0825192,118.655117 66.3799416,116.649696 C48.5366678,114.619008 29.7794797,107.73302 29.7794797,76.961511 C29.7794797,68.1937784 32.9176502,61.0298514 38.0565878,55.4058956 C37.2224915,53.3831865 34.4727676,45.2152187 38.8348115,34.153487 C38.8348115,34.153487 45.5807478,31.9951326 60.9323753,42.3852877 C67.3404167,40.6059421 74.2127304,39.7136096 81.0398151,39.683023 C87.8668992,39.7136096 94.7445349,40.6059421 101.164548,42.3852877 C116.497552,31.9951326 123.234176,34.153487 123.234176,34.153487 C127.606862,45.2152187 124.855808,53.3831865 124.021712,55.4058956 C129.172622,61.0298514 132.289508,68.1937784 132.289508,76.961511 C132.289508,107.806162 113.496402,114.597731 95.6078976,116.585863 C98.4893211,119.078011 101.056794,123.965227 101.056794,131.457629 C101.056794,142.202856 100.963674,150.850901 100.963674,153.495982 C100.963674,155.633059 102.409706,158.137175 106.481745,157.348571 C138.383598,146.717712 161.372461,116.625759 161.372461,81.1558733 C161.372461,36.8025575 125.405221,0.848604635 81.0398151,0.848604635" id="github" stroke="#C5C5C5" sketch:type="MSShapeGroup"></path>
    </g>
</svg>