<?xml version="1.0" encoding="UTF-8" standalone="no"?>
<svg width="85px" height="97px" viewBox="0 0 85 97" version="1.1" xmlns="http://www.w3.org/2000/svg" xmlns:xlink="http://www.w3.org/1999/xlink" xmlns:sketch="http://www.bohemiancoding.com/sketch/ns">
    <!-- Generator: Sketch 3.3.3 (12081) - http://www.bohemiancoding.com/sketch -->
    <title>html5</title>
    <desc>Created with Sketch.</desc>
    <defs></defs>
    <g id="Page-1" stroke="none" stroke-width="1" fill="none" fill-rule="evenodd" sketch:type="MSPage">
        <path d="M42.3568508,18.7072461 L16.2892918,18.7072461 L16.538308,21.4972706 L19.0951347,50.1553079 L42.3568508,50.1553079 L42.3568508,50.1553079 L55.1488874,50.1553079 L53.9413765,63.6426017 L42.3388675,66.7740371 L42.329246,66.7765988 L30.7434606,63.6492431 L30.0028261,55.3552008 L19.5599498,55.3552008 L21.0173937,71.6838171 L42.3269551,77.5975331 L42.3748341,77.5842506 L42.3748341,77.5825302 L63.6653815,71.6838171 L63.8218469,69.9268552 L66.2664215,42.5485238 L66.5202486,39.7559802 L42.3568508,39.7559802 L28.6090681,39.7559802 L27.6583621,29.106803 L42.3568508,29.106803 L67.4668312,29.106803 L67.6755286,26.7693014 L68.1495068,21.4972706 L68.3982942,18.7072461 L42.3568508,18.7072461 Z M83.923439,1.37465153 L76.3530695,86.1537915 L42.323977,95.5846373 L8.38858059,86.167074 L0.826229116,1.37465153 L83.923439,1.37465153 Z" id="html5" stroke="#DBDBDB" sketch:type="MSShapeGroup"></path>
    </g>
</svg>