<?xml version="1.0" encoding="UTF-8" standalone="no"?>
<svg width="77px" height="49px" viewBox="0 0 77 49" version="1.1" xmlns="http://www.w3.org/2000/svg" xmlns:xlink="http://www.w3.org/1999/xlink" xmlns:sketch="http://www.bohemiancoding.com/sketch/ns">
    <!-- Generator: Sketch 3.3.3 (12081) - http://www.bohemiancoding.com/sketch -->
    <title>ios</title>
    <desc>Created with Sketch.</desc>
    <defs></defs>
    <g id="Page-1" stroke="none" stroke-width="1" fill="none" fill-rule="evenodd" sketch:type="MSPage">
        <g id="ios" sketch:type="MSLayerGroup" transform="translate(0.561888, 0.759872)" fill="#C4C4C4">
            <path d="M2.80166214,3.94568811 C2.80166214,4.77908872 2.29662328,5.39561022 1.43023609,5.39561022 C0.70875201,5.39561022 0.167335804,4.77908872 0.167335804,3.94568811 C0.167335804,3.14762174 0.74452307,2.49515679 1.5023845,2.49515679 C2.29662328,2.49515679 2.80166214,3.14762174 2.80166214,3.94568811 L2.80166214,3.94568811 L2.80166214,3.94568811 Z M0.804545695,47.5255948 L0.804545695,14.1895706 L2.16445225,14.1895706 L2.16445225,47.5255948 L0.804545695,47.5255948 L0.804545695,47.5255948 Z" id="Shape" sketch:type="MSShapeGroup"></path>
            <path d="M47.3960476,23.7736775 C47.3960476,40.5805898 38.1107294,48.2200953 27.9468981,48.2200953 C17.5641965,48.2200953 9.15617866,39.9561485 9.15617866,24.4687873 C9.15617866,8.56533489 17.8570342,0.0223694653 28.6780828,0.0223694653 C39.2796548,0.0217602543 47.3960476,8.42521637 47.3960476,23.7736775 L47.3960476,23.7736775 L47.3960476,23.7736775 Z M10.5342739,24.1209278 C10.5342739,36.8644029 16.6808332,46.7640811 28.0111648,46.7640811 C39.4203139,46.7640811 45.9639926,36.5597974 45.9639926,23.9759356 C45.9639926,12.3064995 40.7208041,1.6568825 28.7562941,1.6568825 C16.7917842,1.6568825 10.5342739,11.6838858 10.5342739,24.1209278 L10.5342739,24.1209278 L10.5342739,24.1209278 Z" id="Shape" sketch:type="MSShapeGroup"></path>
            <path d="M52.3870198,43.913583 C54.6684859,45.4414841 58.6063339,46.9169931 61.9930651,46.9169931 C68.4209426,46.9169931 74.1376429,42.3984753 74.1376429,35.7477192 C74.1376429,29.5758028 70.3295408,26.3555136 63.8640734,23.5890866 C58.0776498,21.1132532 52.8750826,18.4260237 52.8750826,11.8282688 C52.8750826,4.95332305 58.2655994,0.0912103049 65.5919974,0.0912103049 C69.5316643,0.0912103049 72.5036937,1.20241111 73.8860329,2.17471182 L73.3361287,3.37363901 C72.1611403,2.54084761 68.986004,1.47960211 65.5307622,1.47960211 C57.7878435,1.47960211 54.415057,7.35848796 54.415057,11.6863227 C54.415057,17.6639007 59.0264923,19.6627219 64.970551,22.510174 C71.8822473,25.9132265 75.54484,28.9129813 75.54484,35.4418952 C75.54484,42.4563504 70.569025,48.1506453 61.7220538,48.1506453 C58.0582485,48.1506453 53.8427201,46.9005444 51.7692112,45.3031932 L52.3870198,43.913583 L52.3870198,43.913583 Z" id="Shape" sketch:type="MSShapeGroup"></path>
        </g>
    </g>
</svg>