<?xml version="1.0" encoding="UTF-8" standalone="no"?>
<svg width="14px" height="14px" viewBox="0 0 14 14" version="1.1" xmlns="http://www.w3.org/2000/svg" xmlns:xlink="http://www.w3.org/1999/xlink" xmlns:sketch="http://www.bohemiancoding.com/sketch/ns">
    <!-- Generator: Sketch 3.3.3 (12081) - http://www.bohemiancoding.com/sketch -->
    <title>Fill 1 Copy 2</title>
    <desc>Created with Sketch.</desc>
    <defs></defs>
    <g id="Page-1" stroke="none" stroke-width="1" fill="none" fill-rule="evenodd" sketch:type="MSPage">
        <path d="M8,0 L14,0 L14,6 L8,6 L8,0 Z M0,0 L6,0 L6,6 L0,6 L0,0 Z M0,8 L6,8 L6,14 L0,14 L0,8 Z M10,4 L12,4 L12,2 L10,2 L10,4 Z M2,4 L4,4 L4,2 L2,2 L2,4 Z M2,12 L4,12 L4,10 L2,10 L2,12 Z M8,8 L10,8 L10,10 L8,10 L8,8 Z M10,10 L12,10 L12,12 L10,12 L10,10 Z M12,8 L14,8 L14,10 L12,10 L12,8 Z M8,12 L10,12 L10,14 L8,14 L8,12 Z M12,12 L14,12 L14,14 L12,14 L12,12 Z" id="Fill-1-Copy-2" fill="#000000" sketch:type="MSShapeGroup"></path>
    </g>
</svg>